# xmcd CD database file
#
# Track frame offsets:
#	150
#	32200
#	59022
#	90445
#
# Disc length: 1626 seconds
#
# Revision: 0
# Processed by: cddbd v1.5.1PL0 Copyright (c) Steve Scherf et al.
# Submitted via: CDex 1.51
#
DISCID=2e065804
DTITLE=玲葉奈 - Tone
DYEAR=1900
DGENRE=JPop
TTITLE0=Tone
TTITLE1=Sea shore
TTITLE2=Tone (Captain Funk Underwater Mix)
TTITLE3=Tone (dub)
EXTD=
EXTT0=
EXTT1=
EXTT2=
EXTT3=
PLAYORDER=
